<mxfile host="app.diagrams.net" modified="2024-05-02T17:45:06.435Z" agent="Mozilla/5.0 (Windows NT 10.0; Win64; x64) AppleWebKit/537.36 (KHTML, like Gecko) Chrome/124.0.0.0 Safari/537.36" etag="JwfR2I229OVPVCMY8YGk" version="24.3.1" type="device">
  <diagram id="bc47vRQSer-DN1HRI0ml" name="Page-1">
    <mxGraphModel dx="882" dy="578" grid="1" gridSize="10" guides="1" tooltips="1" connect="1" arrows="1" fold="1" page="1" pageScale="1" pageWidth="850" pageHeight="1100" math="0" shadow="0">
      <root>
        <mxCell id="0" />
        <mxCell id="1" parent="0" />
        <mxCell id="-4GPq7A81t1IdBCOMMfx-10" style="edgeStyle=orthogonalEdgeStyle;rounded=0;orthogonalLoop=1;jettySize=auto;html=1;exitX=0.5;exitY=1;exitDx=0;exitDy=0;" edge="1" parent="1" source="-4GPq7A81t1IdBCOMMfx-1" target="-4GPq7A81t1IdBCOMMfx-2">
          <mxGeometry relative="1" as="geometry" />
        </mxCell>
        <mxCell id="-4GPq7A81t1IdBCOMMfx-1" value="Log watcher" style="rounded=1;whiteSpace=wrap;html=1;" vertex="1" parent="1">
          <mxGeometry x="80" y="80" width="120" height="60" as="geometry" />
        </mxCell>
        <mxCell id="-4GPq7A81t1IdBCOMMfx-11" style="edgeStyle=orthogonalEdgeStyle;rounded=0;orthogonalLoop=1;jettySize=auto;html=1;exitX=0.5;exitY=1;exitDx=0;exitDy=0;entryX=0.5;entryY=0;entryDx=0;entryDy=0;" edge="1" parent="1" source="-4GPq7A81t1IdBCOMMfx-2" target="-4GPq7A81t1IdBCOMMfx-3">
          <mxGeometry relative="1" as="geometry" />
        </mxCell>
        <mxCell id="-4GPq7A81t1IdBCOMMfx-14" style="edgeStyle=orthogonalEdgeStyle;rounded=0;orthogonalLoop=1;jettySize=auto;html=1;exitX=1;exitY=0.5;exitDx=0;exitDy=0;entryX=0;entryY=0.5;entryDx=0;entryDy=0;" edge="1" parent="1" source="-4GPq7A81t1IdBCOMMfx-2" target="-4GPq7A81t1IdBCOMMfx-5">
          <mxGeometry relative="1" as="geometry" />
        </mxCell>
        <mxCell id="-4GPq7A81t1IdBCOMMfx-2" value="Message queue" style="rounded=1;whiteSpace=wrap;html=1;" vertex="1" parent="1">
          <mxGeometry x="80" y="200" width="120" height="60" as="geometry" />
        </mxCell>
        <mxCell id="-4GPq7A81t1IdBCOMMfx-12" style="edgeStyle=orthogonalEdgeStyle;rounded=0;orthogonalLoop=1;jettySize=auto;html=1;exitX=0.5;exitY=1;exitDx=0;exitDy=0;" edge="1" parent="1" source="-4GPq7A81t1IdBCOMMfx-3" target="-4GPq7A81t1IdBCOMMfx-4">
          <mxGeometry relative="1" as="geometry" />
        </mxCell>
        <mxCell id="-4GPq7A81t1IdBCOMMfx-3" value="DB writer" style="rounded=1;whiteSpace=wrap;html=1;" vertex="1" parent="1">
          <mxGeometry x="80" y="320" width="120" height="60" as="geometry" />
        </mxCell>
        <mxCell id="-4GPq7A81t1IdBCOMMfx-4" value="Raw data DB" style="rounded=1;whiteSpace=wrap;html=1;" vertex="1" parent="1">
          <mxGeometry x="80" y="440" width="120" height="60" as="geometry" />
        </mxCell>
        <mxCell id="-4GPq7A81t1IdBCOMMfx-15" style="edgeStyle=orthogonalEdgeStyle;rounded=0;orthogonalLoop=1;jettySize=auto;html=1;exitX=1;exitY=0.25;exitDx=0;exitDy=0;entryX=0;entryY=0.25;entryDx=0;entryDy=0;" edge="1" parent="1" source="-4GPq7A81t1IdBCOMMfx-5" target="-4GPq7A81t1IdBCOMMfx-6">
          <mxGeometry relative="1" as="geometry" />
        </mxCell>
        <mxCell id="-4GPq7A81t1IdBCOMMfx-16" style="edgeStyle=orthogonalEdgeStyle;rounded=0;orthogonalLoop=1;jettySize=auto;html=1;exitX=1;exitY=0.75;exitDx=0;exitDy=0;entryX=0;entryY=0.75;entryDx=0;entryDy=0;" edge="1" parent="1" source="-4GPq7A81t1IdBCOMMfx-5" target="-4GPq7A81t1IdBCOMMfx-6">
          <mxGeometry relative="1" as="geometry" />
        </mxCell>
        <mxCell id="-4GPq7A81t1IdBCOMMfx-5" value="Data aggregation service" style="rounded=1;whiteSpace=wrap;html=1;" vertex="1" parent="1">
          <mxGeometry x="280" y="80" width="120" height="60" as="geometry" />
        </mxCell>
        <mxCell id="-4GPq7A81t1IdBCOMMfx-19" style="edgeStyle=orthogonalEdgeStyle;rounded=0;orthogonalLoop=1;jettySize=auto;html=1;exitX=0.5;exitY=1;exitDx=0;exitDy=0;entryX=0.5;entryY=0;entryDx=0;entryDy=0;" edge="1" parent="1" source="-4GPq7A81t1IdBCOMMfx-6" target="-4GPq7A81t1IdBCOMMfx-7">
          <mxGeometry relative="1" as="geometry" />
        </mxCell>
        <mxCell id="-4GPq7A81t1IdBCOMMfx-6" value="Message queue" style="rounded=1;whiteSpace=wrap;html=1;" vertex="1" parent="1">
          <mxGeometry x="560" y="80" width="120" height="60" as="geometry" />
        </mxCell>
        <mxCell id="-4GPq7A81t1IdBCOMMfx-20" style="edgeStyle=orthogonalEdgeStyle;rounded=0;orthogonalLoop=1;jettySize=auto;html=1;exitX=0.5;exitY=1;exitDx=0;exitDy=0;entryX=0.5;entryY=0;entryDx=0;entryDy=0;" edge="1" parent="1" source="-4GPq7A81t1IdBCOMMfx-7" target="-4GPq7A81t1IdBCOMMfx-8">
          <mxGeometry relative="1" as="geometry" />
        </mxCell>
        <mxCell id="-4GPq7A81t1IdBCOMMfx-7" value="DB writer" style="rounded=1;whiteSpace=wrap;html=1;" vertex="1" parent="1">
          <mxGeometry x="560" y="200" width="120" height="60" as="geometry" />
        </mxCell>
        <mxCell id="-4GPq7A81t1IdBCOMMfx-8" value="Aggregation DB" style="rounded=1;whiteSpace=wrap;html=1;" vertex="1" parent="1">
          <mxGeometry x="560" y="320" width="120" height="60" as="geometry" />
        </mxCell>
        <mxCell id="-4GPq7A81t1IdBCOMMfx-22" style="edgeStyle=orthogonalEdgeStyle;rounded=0;orthogonalLoop=1;jettySize=auto;html=1;exitX=0.5;exitY=0;exitDx=0;exitDy=0;entryX=0.5;entryY=1;entryDx=0;entryDy=0;" edge="1" parent="1" source="-4GPq7A81t1IdBCOMMfx-9" target="-4GPq7A81t1IdBCOMMfx-8">
          <mxGeometry relative="1" as="geometry" />
        </mxCell>
        <mxCell id="-4GPq7A81t1IdBCOMMfx-9" value="Query service" style="rounded=1;whiteSpace=wrap;html=1;" vertex="1" parent="1">
          <mxGeometry x="560" y="440" width="120" height="60" as="geometry" />
        </mxCell>
        <mxCell id="-4GPq7A81t1IdBCOMMfx-17" value="Ad count&lt;div&gt;(aggregate every minute)&lt;br&gt;&lt;/div&gt;" style="text;html=1;align=center;verticalAlign=middle;whiteSpace=wrap;rounded=0;" vertex="1" parent="1">
          <mxGeometry x="400" y="60" width="160" height="30" as="geometry" />
        </mxCell>
        <mxCell id="-4GPq7A81t1IdBCOMMfx-18" value="Top 100 most click Ads (aggregate every minute)" style="text;html=1;align=center;verticalAlign=middle;whiteSpace=wrap;rounded=0;" vertex="1" parent="1">
          <mxGeometry x="400" y="130" width="160" height="30" as="geometry" />
        </mxCell>
        <mxCell id="-4GPq7A81t1IdBCOMMfx-23" value="Pull aggregation results" style="text;html=1;align=center;verticalAlign=middle;whiteSpace=wrap;rounded=0;" vertex="1" parent="1">
          <mxGeometry x="640" y="160" width="120" height="30" as="geometry" />
        </mxCell>
        <mxCell id="-4GPq7A81t1IdBCOMMfx-24" value="Query aggregation results" style="text;html=1;align=center;verticalAlign=middle;whiteSpace=wrap;rounded=0;" vertex="1" parent="1">
          <mxGeometry x="640" y="400" width="120" height="30" as="geometry" />
        </mxCell>
      </root>
    </mxGraphModel>
  </diagram>
</mxfile>
